<?xml version="1.0" encoding="utf-8"?>
<!-- Generator: Adobe Illustrator 24.2.3, SVG Export Plug-In . SVG Version: 6.00 Build 0)  -->
<svg version="1.1" id="Layer_1" xmlns="http://www.w3.org/2000/svg" xmlns:xlink="http://www.w3.org/1999/xlink" x="0px" y="0px"
	 viewBox="0 0 500 410" style="enable-background:new 0 0 500 410;" xml:space="preserve">
<style type="text/css">
	.st0{fill:#0091FF;}
	.st1{fill:none;stroke:#0091FF;stroke-width:15;stroke-linecap:round;stroke-linejoin:round;stroke-miterlimit:10;}
	.st2{fill:none;stroke:#0091FF;stroke-width:18;stroke-linecap:square;stroke-linejoin:round;stroke-miterlimit:10;}
</style>
<image style="display:none;overflow:visible;opacity:0.3412;enable-background:new    ;" width="2400" height="1677" xlink:href="4F761B4750FD11AD.png"  transform="matrix(0.7197 0 0 0.7197 -543.6816 -458.4975)">
</image>
<g>
	<g>
		<path class="st0" d="M250,0L250,0C40.4,0,33.2,263.5,38.6,368c1.2,23.5,20.6,42,44.2,42h334.5c23.5,0,43-18.4,44.2-42
			C466.8,263.5,459.6,0,250,0z M250,392.2c-83.4,0-151-75.4-151-168.5S166.6,55.3,250,55.3s151,75.4,151,168.5
			S333.4,392.2,250,392.2z"/>
	</g>
</g>
<ellipse class="st0" cx="176.7" cy="274.6" rx="22.9" ry="19.7"/>
<path class="st1" d="M132.4,274.6c0,0,19.8-23.8,44.3-23.8s44.3,23.8,44.3,23.8s-19.8,23.8-44.3,23.8S132.4,274.6,132.4,274.6z"/>
<g>
	<polygon class="st0" points="183.2,119.8 200.7,228.8 449,228.8 373,70.8 144,40.8 51,228.8 165.6,228.8 	"/>
</g>
<polyline class="st2" points="356.6,250.8 295.3,277.9 359.3,295.8 "/>
</svg>
